<svg width="229" height="51" viewBox="0 0 229 51" fill="none" xmlns="http://www.w3.org/2000/svg">
<circle cx="15.5" cy="24.5" r="15.5" fill="black"/>
<ellipse cx="40.5" cy="25.5" rx="8.5" ry="15.5" fill="black"/>
<ellipse cx="53" cy="25.5" rx="3" ry="15.5" fill="black"/>
<path d="M97.9531 37.8711V40H85.1602V37.8711H85.5508C86.4362 37.8711 87.0742 37.7344 87.4648 37.4609C87.8685 37.1875 88.0703 36.582 88.0703 35.6445V15.3906L80.0039 40H77.2891L68.832 15.3906V35.2734C68.832 36.3672 69.0794 37.0768 69.5742 37.4023C70.069 37.7148 70.8112 37.8711 71.8008 37.8711H72.0352V40H62.1133V37.8711H63.793C64.4831 37.8711 64.9974 37.7148 65.3359 37.4023C65.6745 37.0768 65.8438 36.4388 65.8438 35.4883V15.9961C65.8438 15.0456 65.668 14.401 65.3164 14.0625C64.9779 13.724 64.4701 13.5547 63.793 13.5547H62.1133V11.4453H73.6367L80.2773 30.7617L86.6445 11.4453H97.9531V13.5547H96.2734C95.5964 13.5547 95.0885 13.737 94.75 14.1016C94.4115 14.4531 94.2422 15.1367 94.2422 16.1523V35.2734C94.2422 36.2891 94.4115 36.9792 94.75 37.3438C95.0885 37.6953 95.5964 37.8711 96.2734 37.8711H97.9531ZM111.332 40.3906C107.96 40.3906 105.382 39.4271 103.598 37.5C101.84 35.599 100.961 32.8971 100.961 29.3945C100.961 25.6576 101.827 22.8255 103.559 20.8984C105.264 18.9974 107.706 18.0469 110.883 18.0469C113.826 18.0469 116.111 18.8607 117.738 20.4883C118.546 21.2956 119.164 22.2982 119.594 23.4961C120.023 24.694 120.238 26.0872 120.238 27.6758V29.7266H107.133C107.172 31.0677 107.322 32.2201 107.582 33.1836C107.842 34.1471 108.194 34.9414 108.637 35.5664C109.522 36.7904 110.805 37.4023 112.484 37.4023C113.799 37.4023 114.945 37.1094 115.922 36.5234C116.898 35.9245 117.634 35.1367 118.129 34.1602C118.845 34.5508 119.203 35.2018 119.203 36.1133C119.203 36.6862 119.047 37.2331 118.734 37.7539C118.422 38.2617 117.94 38.7109 117.289 39.1016C116.638 39.4922 115.818 39.8047 114.828 40.0391C113.852 40.2734 112.686 40.3906 111.332 40.3906ZM110.961 20.6445C109.841 20.6445 108.949 21.1979 108.285 22.3047C107.634 23.4115 107.276 25.0326 107.211 27.168H114.125C114.125 26.1523 114.066 25.2409 113.949 24.4336C113.845 23.6263 113.663 22.9427 113.402 22.3828C112.868 21.224 112.055 20.6445 110.961 20.6445ZM134.223 9.60938H143.852V35.0781C143.852 36.224 144.158 36.9792 144.77 37.3438C145.395 37.6953 146.195 37.8711 147.172 37.8711H147.328V40H139.574L138.461 36.875H138.09C137.478 38.0078 136.671 38.8802 135.668 39.4922C134.678 40.0911 133.435 40.3906 131.938 40.3906C129.281 40.3906 127.27 39.4987 125.902 37.7148C124.483 35.9049 123.773 33.1055 123.773 29.3164C123.773 25.5013 124.477 22.6628 125.883 20.8008C127.25 18.9909 129.242 18.0859 131.859 18.0859C133.253 18.0859 134.451 18.3724 135.453 18.9453C136.456 19.5182 137.243 20.2995 137.816 21.2891H138.09C138.064 20.9115 138.038 20.5534 138.012 20.2148C137.986 19.8633 137.96 19.5247 137.934 19.1992C137.921 18.7435 137.888 18.2227 137.836 17.6367C137.797 17.0508 137.777 16.6406 137.777 16.4062V14.1992C137.777 13.1445 137.478 12.4674 136.879 12.168C136.28 11.8685 135.499 11.7188 134.535 11.7188H134.223V9.60938ZM133.656 37.4023C135.193 37.4023 136.28 36.7318 136.918 35.3906C137.23 34.7135 137.452 33.8672 137.582 32.8516C137.712 31.8229 137.777 30.6185 137.777 29.2383C137.777 27.9232 137.712 26.7578 137.582 25.7422C137.452 24.7135 137.23 23.8477 136.918 23.1445C136.267 21.7383 135.18 21.0352 133.656 21.0352C132.341 21.0352 131.391 21.7448 130.805 23.1641C130.232 24.5443 129.945 26.582 129.945 29.2773C129.945 31.9727 130.232 34.0039 130.805 35.3711C131.378 36.7253 132.328 37.4023 133.656 37.4023ZM151.352 12.0703C151.352 11.0807 151.671 10.3581 152.309 9.90234C152.96 9.43359 153.773 9.19922 154.75 9.19922C155.701 9.19922 156.508 9.43359 157.172 9.90234C157.849 10.3581 158.188 11.0807 158.188 12.0703C158.188 13.0339 157.849 13.7565 157.172 14.2383C156.495 14.7201 155.688 14.9609 154.75 14.9609C153.773 14.9609 152.96 14.7201 152.309 14.2383C151.671 13.7565 151.352 13.0339 151.352 12.0703ZM148.598 40V37.8711H149.066C149.796 37.8711 150.453 37.6953 151.039 37.3438C151.625 36.9922 151.918 36.3021 151.918 35.2734V23.125C151.918 22.1484 151.618 21.4974 151.02 21.1719C150.421 20.8464 149.77 20.6836 149.066 20.6836H148.598V18.5547H157.992V35.2734C157.992 36.3021 158.285 36.9922 158.871 37.3438C159.47 37.6953 160.128 37.8711 160.844 37.8711H161.312V40H148.598ZM187.699 37.8711V40H179.73L178.852 37.168H178.656C177.888 38.4961 176.977 39.3685 175.922 39.7852C174.88 40.1888 173.682 40.3906 172.328 40.3906C170.245 40.3906 168.643 39.7461 167.523 38.457C166.417 37.168 165.863 35.1758 165.863 32.4805V23.5156C165.863 22.3958 165.655 21.6471 165.238 21.2695C164.835 20.8789 164.132 20.6836 163.129 20.6836H163.051V18.5547H171.938V31.3672C171.938 32.9818 172.139 34.3229 172.543 35.3906C172.96 36.4583 173.773 36.9922 174.984 36.9922C176.234 36.9922 177.165 36.4453 177.777 35.3516C178.077 34.8177 178.292 34.1797 178.422 33.4375C178.552 32.6953 178.617 31.8555 178.617 30.918V23.2422C178.617 22.1354 178.357 21.4323 177.836 21.1328C177.315 20.8333 176.612 20.6836 175.727 20.6836H175.609V18.5547H184.691V35.3516C184.691 36.4323 184.919 37.1224 185.375 37.4219C185.831 37.7214 186.495 37.8711 187.367 37.8711H187.699ZM214.34 37.8711V40H205.453V26.8359C205.453 25.2214 205.225 23.9193 204.77 22.9297C204.327 21.9401 203.487 21.4453 202.25 21.4453C201.365 21.4453 200.668 21.7383 200.16 22.3242C199.652 22.9102 199.294 23.6784 199.086 24.6289C198.878 25.5664 198.773 26.569 198.773 27.6367V35.2734C198.773 36.3411 199.021 37.0443 199.516 37.3828C200.01 37.7083 200.727 37.8711 201.664 37.8711H201.781V40H189.496V37.8711H189.574C190.564 37.8711 191.332 37.7018 191.879 37.3633C192.426 37.0117 192.699 36.263 192.699 35.1172V23.1641C192.699 22.0833 192.452 21.3802 191.957 21.0547C191.462 20.7292 190.746 20.5664 189.809 20.5664H189.691V18.5547H198.09L198.617 21.4062H198.812C199.581 19.974 200.447 19.056 201.41 18.6523C202.387 18.2487 203.559 18.0469 204.926 18.0469C206.397 18.0469 207.654 18.3138 208.695 18.8477C209.737 19.3685 210.499 20.2214 210.98 21.4062H211.332C212.1 19.9609 213.005 19.043 214.047 18.6523C215.102 18.2487 216.319 18.0469 217.699 18.0469C218.728 18.0469 219.652 18.1966 220.473 18.4961C221.306 18.7956 222.003 19.2578 222.562 19.8828C223.135 20.5078 223.565 21.3086 223.852 22.2852C224.151 23.2487 224.301 24.4076 224.301 25.7617V35.0391C224.301 36.1979 224.503 36.9596 224.906 37.3242C225.323 37.6888 226.013 37.8711 226.977 37.8711H227.094V40H218.207V26.8359C218.207 25.1172 217.966 23.7891 217.484 22.8516C217.016 21.9141 216.195 21.4453 215.023 21.4453C214.177 21.4453 213.493 21.7122 212.973 22.2461C212.465 22.7799 212.094 23.4831 211.859 24.3555C211.638 25.2148 211.527 26.1523 211.527 27.168V35.0391C211.527 36.1979 211.729 36.9596 212.133 37.3242C212.549 37.6888 213.246 37.8711 214.223 37.8711H214.34Z" fill="black"/>
</svg>
